<svg width="512" height="512" viewBox="0 0 512 512" fill="none" xmlns="http://www.w3.org/2000/svg">
  <defs>
    <linearGradient id="bgGrad" x1="0" y1="0" x2="512" y2="512" gradientUnits="userSpaceOnUse">
      <stop offset="0%" stop-color="#0070F3"/>
      <stop offset="100%" stop-color="#0A0F1D"/>
    </linearGradient>
    <linearGradient id="bubbleGrad" x1="128" y1="96" x2="384" y2="392" gradientUnits="userSpaceOnUse">
      <stop offset="0%" stop-color="#2563EB"/>
      <stop offset="100%" stop-color="#1D4ED8"/>
    </linearGradient>
    <linearGradient id="accentGrad" x1="184" y1="0" x2="320" y2="0" gradientUnits="userSpaceOnUse">
      <stop offset="0%" stop-color="#38BDF8"/>
      <stop offset="100%" stop-color="#60A5FA"/>
    </linearGradient>
  </defs>

  <!-- Outer Squircle Container -->
  <rect width="512" height="512" rx="112" fill="url(#bgGrad)"/>
  <rect x="2" y="2" width="508" height="508" rx="110" stroke="white" stroke-opacity="0.15" stroke-width="4"/>

  <!-- Subtle Background Ambient Glow -->
  <circle cx="256" cy="240" r="160" fill="#0070F3" fill-opacity="0.3" filter="blur(40px)"/>

  <!-- SMS Speech Bubble Body -->
  <path d="M128 152C128 121.072 153.072 96 184 96H328C358.928 96 384 121.072 384 152V272C384 302.928 358.928 328 328 328H236L164 384V328H184C153.072 328 128 302.928 128 272V152Z" fill="url(#bubbleGrad)" stroke="white" stroke-opacity="0.2" stroke-width="4"/>

  <!-- SMS Text Lines / Signal Indicators -->
  <rect x="176" y="160" width="160" height="24" rx="12" fill="white"/>
  <rect x="176" y="208" width="104" height="24" rx="12" fill="url(#accentGrad)"/>
  <circle cx="312" cy="220" r="12" fill="#38BDF8"/>

  <!-- Verified Green Badge -->
  <circle cx="360" cy="128" r="32" fill="#10B981" stroke="#0A0F1D" stroke-width="8"/>
  <path d="M346 128L355 137L374 118" stroke="white" stroke-width="7" stroke-linecap="round" stroke-linejoin="round"/>
</svg>
